<?xml version="1.0" encoding="UTF-8"?><svg xmlns="http://www.w3.org/2000/svg" viewBox="0 0 256 256"><rect width="256" height="256" fill="#050505"/><defs><filter id="softShadow" x="-20%" y="-20%" width="140%" height="140%"><feDropShadow dx="2.5" dy="3.5" stdDeviation="1.8" flood-color="#000000" flood-opacity="0.45"/></filter></defs><g id="ombre" transform="translate(3 4)" opacity="0.45" filter="url(#softShadow)"><path fill="#000000" d="M105 67H155L151 86H139L127 154C125 171 114 181 94 181C72 181 51 174 53 162L65 118L93 134L87 160C87 165 92 167 98 167C103 167 106 162 107 155L121 86H101Z"/><path fill="#000000" d="M156 84C145 84 140 91 138 103L126 158C124 171 133 181 145 181H191L199 134H155L151 150H176L174 164H146L156 112H181L177 128H203L208 101C210 91 203 84 194 84Z"/></g><g id="contour-blanc" fill="#ffffff"><path d="M104 66H156L152 87H140L128 155C126 172 114 182 94 182C71 182 50 175 52 162L64 117L94 133L88 161C88 166 93 168 99 168C104 168 107 163 108 155L122 87H102Z"/><path d="M155 83C145 83 139 90 137 103L125 159C123 172 132 182 145 182H192L200 133H156L152 149H177L175 165H147L157 111H182L178 127H204L209 101C211 90 203 83 194 83Z"/></g><g id="JG"><path fill="#050505" d="M106 69H153L138 86L126 154C124 169 114 175 95 175C78 175 59 171 58 163L68 123L89 136L84 160C84 168 103 171 108 154L122 82H105Z"/><path fill="#2117aa" d="M157 87C149 87 145 93 143 103L131 157C129 166 136 175 146 175H188L196 136H159L156 145H179L176 165H143L155 108H184L181 126H200L205 102C207 92 200 87 193 87Z"/></g><g id="productions" fill="#ffffff" transform="translate(0 1)"><path d="M43 205H47C50 205 52 203 53 200L54 195H50L49 199C49 200 48 201 47 201H43V205Z"/><path d="M58 205H62L63 200H68C72 200 75 197 76 193L77 188C78 183 75 180 71 180H59L58 205Z"/><path d="M81 205H87L88 200H95C99 200 102 197 103 193L104 188C105 183 102 180 98 180H84L81 205Z"/><path d="M106 205H112L116 180H110L106 205Z"/><path d="M121 205H127L129 196H138L139 191H130L131 185H141L142 180H126L121 205Z"/><path d="M146 205H152L154 196H163L164 191H155L156 185H166L167 180H151L146 205Z"/><path d="M171 205H177L181 180H175L171 205Z"/><path d="M186 205H192L194 196H203L204 191H195L196 185H206L207 180H191L186 205Z"/><path d="M212 205H218L223 188L226 205H232L235 180H229L226 197L223 180H217L212 205Z"/></g></svg>
